<svg xmlns="http://www.w3.org/2000/svg" height="16" width="16"><path d="M2.086.904C1.388 1.318.013 2.898 0 3.312v.686C0 4.867.812 5.63 1.55 5.63c.886 0 1.624-.734 1.624-1.606 0 .872.712 1.606 1.598 1.606s1.576-.734 1.576-1.606c0 .872.757 1.606 1.643 1.606h.016c.886 0 1.644-.734 1.644-1.606 0 .872.69 1.606 1.575 1.606s1.599-.734 1.599-1.606c0 .872.738 1.606 1.623 1.606.738 0 1.55-.764 1.55-1.633v-.686c-.013-.414-1.388-1.994-2.085-2.408A150 150 0 007.999.815c-2.24 0-5.296.035-5.913.089m4.25 4.317a1.8 1.8 0 01-.311.402c-.335.327-.793.53-1.298.53a1.86 1.86 0 01-1.3-.53 1.7 1.7 0 01-.298-.394 1.8 1.8 0 01-.324.394 1.86 1.86 0 01-1.3.53.6.6 0 01-.176-.035 27 27 0 00-.112 1.967v.003l-.004.777c.014 1.556-.154 5.043.686 5.9 1.302.303 3.697.441 6.1.442 2.403-.001 4.798-.14 6.1-.443.84-.856.672-4.343.686-5.899l-.004-.777v-.003a26 26 0 00-.112-1.967.6.6 0 01-.175.034 1.86 1.86 0 01-1.301-.53 1.8 1.8 0 01-.323-.393 1.7 1.7 0 01-.298.393 1.86 1.86 0 01-1.3.53 1.85 1.85 0 01-1.298-.53 1.8 1.8 0 01-.312-.4 1.8 1.8 0 01-.309.4 1.86 1.86 0 01-1.3.53L8 6.151l-.054.001a1.86 1.86 0 01-1.3-.53 1.8 1.8 0 01-.31-.4zM5.001 6.948v.001c.53.001 1 0 1.582.636.458-.048.937-.072 1.416-.072.48 0 .958.024 1.417.072.582-.636 1.052-.635 1.58-.636h.002c.25 0 1.25 0 1.946 1.956l.748 2.684c.554 1.997-.178 2.045-1.09 2.047-1.355-.05-2.104-1.034-2.104-2.017-.75.123-1.624.184-2.499.185a16 16 0 01-2.498-.185c0 .983-.75 1.967-2.104 2.017-.913-.002-1.645-.05-1.09-2.047l.748-2.684C3.75 6.949 4.75 6.949 5 6.949zm2.998 1.538c-.001.002-1.426 1.31-1.682 1.775l.933-.038v.814c0 .038.374.022.749.005.375.017.75.033.75-.005v-.814l.932.038c-.256-.465-1.682-1.775-1.682-1.775" fill="#fff"/></svg>