<svg xmlns="http://www.w3.org/2000/svg" width="64" height="64"><path fill="#fff" d="M41.01 9.5a37 37 0 00-1.698 3.434 49.5 49.5 0 00-14.653 0 34 34 0 00-1.697-3.434 53.3 53.3 0 00-13.21 4.072c-8.348 12.368-10.607 24.416-9.484 36.3a53.1 53.1 0 0016.197 8.13 39 39 0 003.472-5.59 35 35 0 01-5.463-2.605c.46-.331.906-.676 1.34-1.008a38.03 38.03 0 0032.381 0c.434.357.881.702 1.34 1.008a35 35 0 01-5.475 2.617 39 39 0 003.472 5.59 53 53 0 0016.197-8.117c1.327-13.785-2.272-25.731-9.51-36.312a52.5 52.5 0 00-13.197-4.06zm-19.645 33.058c-3.152 0-5.769-2.86-5.769-6.395s2.515-6.407 5.757-6.407 5.82 2.885 5.769 6.407-2.54 6.395-5.757 6.395m21.264 0c-3.165 0-5.756-2.86-5.756-6.395s2.515-6.407 5.756-6.407 5.808 2.885 5.757 6.407-2.54 6.395-5.757 6.395"/></svg>